# File created by Blade
# Date/Time:  Mon Sep 22 21:09:19 2014
# Frame Rate: 120.000 fps
#------------------------------------------------------
:FULLY-SPECIFIED
:DEGREES
3386
root 2.275199 32.834068 -7.094554 34.525696 -3.882300 -6.905022
Spine -29.185642 -5.349320 14.377950
Head 6.902489 -6.441445 -4.024983
LeftShoulder -22.744625 54.070475 12.358173
LeftArm 41.268498 -22.797401 -70.993659
LeftForeArm -26.718106 -0.000000 80.805617
LeftHand -30.823801 -0.000000 1.799397
LeftHandThumb1 -26.253704 0.000000 33.147579
RightShoulder -21.219594 -56.020644 -13.484520
RightArm 46.573907 12.461145 71.449279
RightForeArm 22.526536 0.000000 75.138808
RightHand 3.924364 0.000000 -5.643958
RightHandThumb1 -24.326973 -0.000000 -32.862282
LeftUpLeg -31.978501 -0.983167 6.769882
LeftLeg 10.760155 -0.000000 -0.000000
LeftFoot -9.104558 8.375270 8.823638
LeftToeBase -3.071915 -0.000000 0.000000
RightUpLeg -44.466188 7.740854 0.584004
RightLeg 24.152996 -0.000000 -0.000000
RightFoot -4.974276 -9.944300 14.956314
RightToeBase 3.167127 -0.000000 -0.000000
3387
root 2.216096 32.817208 -7.054819 34.374010 -3.372073 -6.517601
Spine -29.130615 -5.280264 14.125957
Head 6.419212 -6.516413 -4.400069
LeftShoulder -22.611143 53.890909 12.450507
LeftArm 41.463236 -23.470792 -70.775900
LeftForeArm -26.049841 -0.000000 80.355645
LeftHand -30.852235 -0.000000 2.010764
LeftHandThumb1 -26.253704 0.000000 33.147579
RightShoulder -21.290187 -55.972342 -13.617363
RightArm 46.488778 13.005758 71.717323
RightForeArm 21.975503 -0.000000 74.467910
RightHand 3.901579 -0.000000 -5.771180
RightHandThumb1 -24.326973 -0.000000 -32.862282
LeftUpLeg -31.916189 -1.127087 6.594352
LeftLeg 10.778920 -0.000000 -0.000000
LeftFoot -9.129511 7.942837 8.856753
LeftToeBase -3.204399 -0.000000 0.000000
RightUpLeg -43.451011 6.577115 1.178897
RightLeg 22.920252 -0.000000 -0.000000
RightFoot -5.624574 -9.746650 14.552583
RightToeBase 3.743775 -0.000000 -0.000000
3388
root 2.156835 32.804051 -7.023353 34.247645 -2.885775 -6.192479
Spine -29.059594 -5.190188 13.928655
Head 5.917573 -6.621649 -4.781775
LeftShoulder -22.555281 53.709525 12.446932
LeftArm 41.671465 -24.136811 -70.536680
LeftForeArm -25.240475 -0.000000 79.908170
LeftHand -30.858832 -0.000000 2.165353
LeftHandThumb1 -26.253704 0.000000 33.147579
RightShoulder -21.334142 -55.940434 -13.744338
RightArm 46.471201 13.580453 71.995935
RightForeArm 21.507742 -0.000000 73.818885
RightHand 3.706674 -0.000000 -5.874904
RightHandThumb1 -24.326973 -0.000000 -32.862282
LeftUpLeg -31.897240 -1.398412 6.552652
LeftLeg 10.853296 -0.000000 -0.000000
LeftFoot -9.186983 7.681021 8.888043
LeftToeBase -3.136313 -0.000000 0.000000
RightUpLeg -42.551518 5.560357 1.697892
RightLeg 21.744025 -0.000000 -0.000000
RightFoot -6.115741 -9.515074 14.291542
RightToeBase 4.212862 -0.000000 -0.000000
3389
root 2.095514 32.791920 -6.994965 34.219933 -2.479119 -5.876175
Spine -29.095746 -5.026067 13.696323
Head 5.484602 -6.746327 -5.196185
LeftShoulder -22.463878 53.592837 12.503724
LeftArm 41.917406 -24.764403 -70.358644
LeftForeArm -24.300408 0.000000 79.426493
LeftHand -30.849306 0.000000 2.363496
LeftHandThumb1 -26.253704 0.000000 33.147579
RightShoulder -21.254194 -55.814331 -13.992406
RightArm 46.288793 14.084448 72.218002
RightForeArm 20.997781 -0.000000 73.194882
RightHand 3.693373 0.000000 -6.011964
RightHandThumb1 -24.326973 -0.000000 -32.862282
LeftUpLeg -31.970227 -1.668883 6.509615
LeftLeg 10.941258 -0.000000 -0.000000
LeftFoot -9.210138 7.506464 8.794514
LeftToeBase -3.161324 -0.000000 0.000000
RightUpLeg -41.834792 4.600048 2.110681
RightLeg 20.684447 -0.000000 -0.000000
RightFoot -6.520027 -9.053989 14.107964
RightToeBase 4.705324 -0.000000 -0.000000
3390
root 2.035639 32.780848 -6.976687 34.226735 -2.084552 -5.595369
Spine -29.128349 -4.848641 13.495449
Head 5.008718 -6.834280 -5.614754
LeftShoulder -22.357232 53.387250 12.623756
LeftArm 42.086062 -25.307392 -70.187002
LeftForeArm -23.197723 -0.000000 78.916067
LeftHand -30.816236 -0.000000 2.562261
LeftHandThumb1 -26.253704 0.000000 33.147579
RightShoulder -21.253291 -55.720588 -14.184811
RightArm 46.204052 14.556532 72.448939
RightForeArm 20.591486 -0.000000 72.555027
RightHand 3.783784 0.000000 -6.150217
RightHandThumb1 -24.326973 -0.000000 -32.862282
LeftUpLeg -32.132276 -1.938317 6.497687
LeftLeg 11.111922 -0.000000 -0.000000
LeftFoot -9.234458 7.440316 8.768273
LeftToeBase -3.180599 -0.000000 0.000000
RightUpLeg -41.249195 3.730752 2.471959
RightLeg 19.745051 -0.000000 -0.000000
RightFoot -6.811782 -8.625117 13.804877
RightToeBase 5.149664 -0.000000 -0.000000
3391
root 1.973347 32.769258 -6.957484 34.218862 -1.775667 -5.316675
Spine -29.160046 -4.637805 13.236436
Head 4.612331 -6.888914 -5.993157
LeftShoulder -22.188553 53.205087 12.783129
LeftArm 42.235750 -25.880045 -70.059481
LeftForeArm -21.900484 0.000000 78.438590
LeftHand -30.915404 -0.000000 2.801640
LeftHandThumb1 -26.253704 0.000000 33.147579
RightShoulder -21.257523 -55.694175 -14.335327
RightArm 46.193958 15.030058 72.671916
RightForeArm 20.236269 0.000000 71.923311
RightHand 3.815273 -0.000000 -6.257246
RightHandThumb1 -24.326973 -0.000000 -32.862282
LeftUpLeg -32.250295 -2.077850 6.409983
LeftLeg 11.277528 -0.000000 -0.000000
LeftFoot -9.334073 7.319360 8.668262
LeftToeBase -3.035868 -0.000000 0.000000
RightUpLeg -40.719176 2.984430 2.737949
RightLeg 18.909297 -0.000000 -0.000000
RightFoot -7.056155 -8.173750 13.626581
RightToeBase 5.374748 -0.000000 -0.000000
3392
root 1.912794 32.758148 -6.941977 34.241665 -1.498287 -5.033126
Spine -29.214321 -4.422378 12.960835
Head 4.205610 -6.933040 -6.378852
LeftShoulder -22.086106 53.133199 12.907282
LeftArm 42.492334 -26.394387 -70.015102
LeftForeArm -20.722886 -0.000000 77.957538
LeftHand -30.903604 -0.000000 3.442751
LeftHandThumb1 -26.253704 0.000000 33.147579
RightShoulder -21.255656 -55.619763 -14.490756
RightArm 46.174448 15.460599 72.839484
RightForeArm 19.946312 -0.000000 71.261063
RightHand 3.942459 -0.000000 -6.401814
RightHandThumb1 -24.326973 -0.000000 -32.862282
LeftUpLeg -32.402750 -2.164387 6.273983
LeftLeg 11.446178 -0.000000 -0.000000
LeftFoot -9.366160 7.242622 8.663395
LeftToeBase -3.078658 -0.000000 0.000000
RightUpLeg -40.279003 2.357225 2.909085
RightLeg 18.148344 -0.000000 -0.000000
RightFoot -7.261050 -7.774318 13.387892
RightToeBase 5.616260 -0.000000 -0.000000
3393
root 1.839196 32.748309 -6.926625 34.301829 -1.271849 -4.866739
Spine -29.301864 -4.172880 12.751982
Head 3.854002 -6.942388 -6.740609
LeftShoulder -22.063947 53.033482 12.997067
LeftArm 42.702975 -26.885710 -69.905419
LeftForeArm -19.275854 -0.000000 77.419818
LeftHand -30.901577 -0.000000 3.751917
LeftHandThumb1 -26.253704 0.000000 33.147579
RightShoulder -21.138009 -55.446303 -14.710586
RightArm 46.067208 15.855855 72.943639
RightForeArm 19.666016 -0.000000 70.624205
RightHand 4.020439 -0.000000 -6.489981
RightHandThumb1 -24.326973 -0.000000 -32.862282
LeftUpLeg -32.558334 -2.108102 6.218153
LeftLeg 11.604435 -0.000000 -0.000000
LeftFoot -9.486810 7.126629 8.574945
LeftToeBase -3.042180 -0.000000 0.000000
RightUpLeg -39.825435 1.996434 3.033795
RightLeg 17.268579 -0.000000 -0.000000
RightFoot -7.368677 -7.343785 13.473863
RightToeBase 5.761456 -0.000000 -0.000000
3394
root 1.770114 32.738354 -6.912111 34.388154 -1.075513 -4.687652
Spine -29.444671 -3.906028 12.515497
Head 3.577160 -6.910673 -7.085468
LeftShoulder -21.908512 52.975938 13.188254
LeftArm 42.846465 -27.377678 -69.833140
LeftForeArm -17.900007 -0.000000 76.913900
LeftHand -30.748536 0.000000 3.949174
LeftHandThumb1 -26.253704 0.000000 33.147579
RightShoulder -21.130709 -55.462312 -14.821185
RightArm 46.192998 16.285456 73.094378
RightForeArm 19.475085 -0.000000 69.941853
RightHand 4.043752 -0.000000 -6.414021
RightHandThumb1 -24.326973 -0.000000 -32.862282
LeftUpLeg -32.802060 -1.731779 5.985657
LeftLeg 11.896469 -0.000000 -0.000000
LeftFoot -9.685283 6.619924 8.461092
LeftToeBase -3.024894 -0.000000 0.000000
RightUpLeg -39.441754 1.658950 3.121554
RightLeg 16.460452 -0.000000 -0.000000
RightFoot -7.483768 -7.047749 13.283833
RightToeBase 6.020017 -0.000000 -0.000000
